<svg xmlns="http://www.w3.org/2000/svg" viewBox="0 0 76.64 64.29" id="blog"><g id="레이어_2" data-name="레이어 2"><g id="Layer_1" data-name="Layer 1"><path d="M63.81,29A2.86,2.86,0,1,1,61,26.12,2.85,2.85,0,0,1,63.81,29Z"/><path d="M19.31,29a2.86,2.86,0,1,1-2.86-2.86A2.85,2.85,0,0,1,19.31,29Z"/><path d="M76.21,10.7a15.22,15.22,0,0,0-.68-2.46,12.22,12.22,0,0,0-2.6-3.95A14.64,14.64,0,0,0,68.25.91,11.17,11.17,0,0,0,64.34,0H11.75A12.18,12.18,0,0,0,7,1.66,15.51,15.51,0,0,0,3.35,4.6a12.47,12.47,0,0,0-2.67,5A17.59,17.59,0,0,0,0,13.23a.74.74,0,0,1,0,.21V40.21a14.92,14.92,0,0,0,3.26,7.73,12.44,12.44,0,0,0,7.09,4.48,17.35,17.35,0,0,0,3.29.44l16.18,0a3.13,3.13,0,0,1,.61,0,1.8,1.8,0,0,1,1.3.94c.3.54.59,1.08.9,1.62,1.26,2.22,2.51,4.44,3.78,6.65.25.44.52.86.79,1.29a2.2,2.2,0,0,0,.86.85h.49a2.56,2.56,0,0,0,.93-1c1.72-2.9,3.43-5.8,5.06-8.76a7.85,7.85,0,0,1,.49-.78,2,2,0,0,1,1.63-.84h16a14.17,14.17,0,0,0,6.55-1.68,14,14,0,0,0,4.43-3.51A13,13,0,0,0,76.3,42a16.9,16.9,0,0,0,.34-3.09V14.65A16.38,16.38,0,0,0,76.21,10.7ZM23.63,31.83a6.64,6.64,0,0,1-4.39,4.31,5.25,5.25,0,0,1-1.41.32,4.91,4.91,0,0,1-2.27-.41c-.42-.17-.82-.38-1.22-.59a1.83,1.83,0,0,0-1-.23L10,35.35H9.5c-.37,0-.48-.12-.49-.49,0-.59,0-1.19,0-1.78V25.51H9v-8.8c0-.22,0-.43,0-.65s.13-.39.4-.4.74,0,1.11,0l2.76.16h.16a.16.16,0,0,1,.16.18v.15c0,1.84.05,3.67.08,5.51a3.41,3.41,0,0,0,.05.55c0,.25.17.33.42.27a1.85,1.85,0,0,0,.42-.17,9.13,9.13,0,0,1,1.68-.69A5.49,5.49,0,0,1,20,22a6.07,6.07,0,0,1,3.5,3.78c.17.53.34,1.06.49,1.59a4.26,4.26,0,0,1,.17,1.42A11,11,0,0,1,23.63,31.83Zm9.24-3.1c0,1.86,0,3.72,0,5.57,0,.24,0,.47,0,.71a.34.34,0,0,1-.32.32l-.27,0H28.67a.47.47,0,0,1-.45-.39,2.05,2.05,0,0,1-.06-.49c0-3.07,0-6.15,0-9.23,0-.67,0-1.35,0-2a4.11,4.11,0,0,0-1.67-3.27,2,2,0,0,1-.86-1.73c0-1.1,0-2.21,0-3.32a1.38,1.38,0,0,1,.08-.45.45.45,0,0,1,.55-.28l.12,0a11.84,11.84,0,0,1,3.79,2.24,8,8,0,0,1,2.45,4.41,12.16,12.16,0,0,1,.24,2.41c0,1.82,0,3.65,0,5.47Zm10.27,7.82a7.57,7.57,0,0,1-.57-15.12h.57a7.57,7.57,0,1,1,0,15.14Zm25.57-.7a6.79,6.79,0,0,1-.93,3.49A8.42,8.42,0,0,1,63.93,43a12.41,12.41,0,0,1-2.2.75c-.44.11-.88.2-1.32.29a.57.57,0,0,1-.69-.52c0-1.32,0-2.64,0-4a.48.48,0,0,1,.31-.46,6.19,6.19,0,0,1,.6-.23l1.11-.37a2.62,2.62,0,0,0,1.43-1.1,8,8,0,0,0,.8-1.8.42.42,0,0,0,0-.12c0-.23-.06-.3-.29-.27a1.42,1.42,0,0,0-.35.11l-1.31.59a6,6,0,0,1-1.9.48,4.75,4.75,0,0,1-2.83-.67,7.44,7.44,0,0,1-3.64-4.82,8.27,8.27,0,0,1,1.07-6.55,6.25,6.25,0,0,1,3-2.53,5.71,5.71,0,0,1,5.09.36c.26.14.51.31.76.46s.36.13.49-.14a.45.45,0,0,1,.4-.28l.46,0,3.2.09h.12c.26,0,.25,0,.28.29.21,2.56.2,5.12.18,7.05Z"/><path d="M46,29a2.86,2.86,0,1,1-2.85-2.86A2.84,2.84,0,0,1,46,29Z"/></g></g></svg>