<svg xmlns="http://www.w3.org/2000/svg" viewBox="0 0 76 53.58" id="mail"><g id="레이어_2" data-name="레이어 2"><g id="Layer_1" data-name="Layer 1"><path d="M34.58,30.74a5.08,5.08,0,0,0,6.82,0L76,5.22V3.08A2.84,2.84,0,0,0,73.16.25L2.83,0A2.83,2.83,0,0,0,0,2.83V5.21Z"/><polygon points="76 8.94 51.83 26.79 76 44.64 76 8.94"/><polygon points="24.17 26.79 0 8.94 0 44.64 24.17 26.79"/><path d="M49.3,28.65l-6.1,4.51A8.58,8.58,0,0,1,38,35.07a8.44,8.44,0,0,1-5.22-1.94L26.7,28.66,0,48.37V50.5a2.83,2.83,0,0,0,2.83,2.83l70.33.25A2.84,2.84,0,0,0,76,50.75V48.37Z"/></g></g></svg>