<svg xmlns="http://www.w3.org/2000/svg" viewBox="0 0 272.47 272.47" id="nouroom_icon"><g id="레이어_2" data-name="레이어 2"><g id="Layer_1" data-name="Layer 1"><polygon  points="259.09 78.32 259.09 259.09 13.38 259.09 13.38 13.38 249.47 13.38 221.57 49.48 232.16 57.66 267.02 12.56 267.03 0 0 0 0 272.47 272.47 272.47 272.47 78.32 259.09 78.32"/><path  d="M60.22,128.77c-5.52,0-10.34,1.94-13.55,5.47s-4.85,8.24-4.85,14v22.82H55.41v-23.9a5.06,5.06,0,0,1,1.27-3.74,5,5,0,0,1,3.54-1.25,4.92,4.92,0,0,1,3.53,1.23A5.14,5.14,0,0,1,65,147.18v23.9H78.56V148.26c0-5.77-1.62-10.49-4.8-14S65.75,128.77,60.22,128.77Z"/><path  d="M151.18,153.73a5.15,5.15,0,0,1-1.26,3.76,3.83,3.83,0,0,1-3.06,1.23,3.9,3.9,0,0,1-3.09-1.25,5.06,5.06,0,0,1-1.27-3.74v-23H128.91v21.9c0,5.77,1.62,10.49,4.8,14a18.41,18.41,0,0,0,26.2,0c3.2-3.53,4.82-8.25,4.82-14v-21.9H151.18Z"/><path  d="M197,129.92a9.13,9.13,0,1,0,6.51,2.67A9,9,0,0,0,197,129.92Z"/><path  d="M197,154.08a9.15,9.15,0,1,0,6.51,2.68A9,9,0,0,0,197,154.08Z"/><path  d="M117.36,135.87a19.71,19.71,0,0,0-6.57-4.5,20.18,20.18,0,0,0-7.78-1.54,19.63,19.63,0,0,0-7.74,1.55,20.17,20.17,0,0,0-6.55,4.49,21.33,21.33,0,0,0-4.44,6.71,20.56,20.56,0,0,0-1.55,7.9,20.82,20.82,0,0,0,6,14.73,20.39,20.39,0,0,0,6.53,4.47,19.8,19.8,0,0,0,7.74,1.54,20.14,20.14,0,0,0,7.78-1.53,19.66,19.66,0,0,0,6.55-4.48,20.23,20.23,0,0,0,4.43-6.76,21.24,21.24,0,0,0,1.52-8,21,21,0,0,0-1.52-7.9A20.33,20.33,0,0,0,117.36,135.87ZM103,157.93a5.75,5.75,0,0,1-4.53-2.07,7.48,7.48,0,0,1-2-5.45,7.4,7.4,0,0,1,2-5.39A5.8,5.8,0,0,1,103,143a5.74,5.74,0,0,1,4.54,2,7.39,7.39,0,0,1,2,5.4,7.49,7.49,0,0,1-2,5.45A5.75,5.75,0,0,1,103,157.93Z"/><path  d="M105.07,192.72a19.82,19.82,0,0,0-6.58-4.49,20.14,20.14,0,0,0-7.78-1.54A19.67,19.67,0,0,0,83,188.24a20.36,20.36,0,0,0-6.54,4.48A21.29,21.29,0,0,0,72,199.44a20.7,20.7,0,0,0-1.55,7.89,21.13,21.13,0,0,0,1.55,8,20.72,20.72,0,0,0,4.47,6.74A20.14,20.14,0,0,0,83,226.53a19.67,19.67,0,0,0,7.74,1.55,20.14,20.14,0,0,0,7.78-1.54,19.81,19.81,0,0,0,6.56-4.48,20.31,20.31,0,0,0,4.42-6.75,21.3,21.3,0,0,0,1.53-8,21,21,0,0,0-1.53-7.9A20.3,20.3,0,0,0,105.07,192.72ZM90.71,214.78a5.73,5.73,0,0,1-4.52-2.06,8.28,8.28,0,0,1,0-10.85,6.06,6.06,0,0,1,9.08,0,8.32,8.32,0,0,1,0,10.86A5.76,5.76,0,0,1,90.71,214.78Z"/><path  d="M149.67,192.72a19.82,19.82,0,0,0-6.58-4.49,20.14,20.14,0,0,0-7.78-1.54,19.67,19.67,0,0,0-7.74,1.55,20.36,20.36,0,0,0-6.54,4.48,21.29,21.29,0,0,0-4.45,6.72,20.69,20.69,0,0,0-1.54,7.89,21.13,21.13,0,0,0,1.54,8,20.72,20.72,0,0,0,4.47,6.74,20.19,20.19,0,0,0,6.52,4.47,19.67,19.67,0,0,0,7.74,1.55,20.11,20.11,0,0,0,7.78-1.54,19.81,19.81,0,0,0,6.56-4.48,20.5,20.5,0,0,0,4.43-6.75,21.49,21.49,0,0,0,1.52-8,21,21,0,0,0-1.53-7.9A20.35,20.35,0,0,0,149.67,192.72Zm-14.36,22.06a5.73,5.73,0,0,1-4.52-2.06,8.28,8.28,0,0,1,0-10.85,6.06,6.06,0,0,1,9.08,0,8.32,8.32,0,0,1,0,10.86A5.77,5.77,0,0,1,135.31,214.78Z"/><path  d="M210.07,191.28a15.93,15.93,0,0,0-12.35-5.2,16.27,16.27,0,0,0-7.35,1.69,15.92,15.92,0,0,0-2.79,1.79,15.73,15.73,0,0,0-2.78-1.77,16.25,16.25,0,0,0-7.39-1.71A15.94,15.94,0,0,0,165,191.26c-3,3.33-4.54,7.78-4.54,13.24v23.89h13.59v-25a4.08,4.08,0,0,1,1-3,3,3,0,0,1,2.39-.9,3.1,3.1,0,0,1,2.45.94,3.94,3.94,0,0,1,1,2.94v25h13.56v-25a4.05,4.05,0,0,1,1-3,3.59,3.59,0,0,1,4.78,0,4.05,4.05,0,0,1,.95,3v25h13.56V204.5C214.62,199.06,213.09,194.61,210.07,191.28Z"/><path  d="M61.76,186.77c-3.74,0-9.1.76-13.42,4.38s-6.52,9.2-6.52,16.55v21.61H55.44V208.15s-.06-4.12,2.36-6.32c1.48-1.35,3.78-1.83,6.78-1.43l3.31.44V187.48l-2.41-.43A22.49,22.49,0,0,0,61.76,186.77Z"/></g></g></svg>