<svg xmlns="http://www.w3.org/2000/svg" viewBox="0 0 500.26 60.71" id="nouroom_logo"><title>자산 5</title><g id="레이어_2" data-name="레이어 2"><g id="Layer_1" data-name="Layer 1"><path  d="M25.57,0C17.9,0,11.21,2.7,6.74,7.6S0,19.06,0,27.09v31.7H18.88V25.59a7.09,7.09,0,0,1,1.77-5.21,6.91,6.91,0,0,1,4.92-1.73,6.86,6.86,0,0,1,4.9,1.7,7.18,7.18,0,0,1,1.75,5.24v33.2H51.05V27.09c0-8-2.24-14.57-6.67-19.47S33.26,0,25.57,0Z"/><path  d="M152,34.68a7.17,7.17,0,0,1-1.74,5.23A5.33,5.33,0,0,1,146,41.62a5.43,5.43,0,0,1-4.29-1.73,7.07,7.07,0,0,1-1.77-5.21V2.76H121V33.18c0,8,2.25,14.57,6.68,19.47,4.56,5.06,10.68,7.62,18.16,7.62s13.64-2.56,18.23-7.61c4.45-4.9,6.71-11.45,6.71-19.48V2.76H152Z"/><path  d="M215.56,1.6a12.7,12.7,0,0,0-12.77,12.76,12.5,12.5,0,0,0,3.75,9,12.72,12.72,0,0,0,18,0,12.51,12.51,0,0,0,3.74-9A12.7,12.7,0,0,0,215.56,1.6Z"/><path  d="M215.56,35.18a12.75,12.75,0,0,0-9,21.78A12.77,12.77,0,0,0,224.6,38.9,12.49,12.49,0,0,0,215.56,35.18Z"/><path  d="M348,9.87a27.43,27.43,0,0,0-9.14-6.25,27.89,27.89,0,0,0-10.8-2.14,27.49,27.49,0,0,0-10.76,2.15,28.2,28.2,0,0,0-9.09,6.24,29.57,29.57,0,0,0-6.17,9.33,28.57,28.57,0,0,0-2.16,11,29.28,29.28,0,0,0,2.15,11.09,28.77,28.77,0,0,0,6.21,9.37,28.08,28.08,0,0,0,9.06,6.21A27.35,27.35,0,0,0,328.1,59a27.89,27.89,0,0,0,10.8-2.14A27.22,27.22,0,0,0,348,50.63a28.28,28.28,0,0,0,6.15-9.38,29.63,29.63,0,0,0,2.11-11.08,29.27,29.27,0,0,0-2.11-11A28.34,28.34,0,0,0,348,9.87ZM328.1,40.52a8,8,0,0,1-6.29-2.87A10.38,10.38,0,0,1,319,30.08a10.28,10.28,0,0,1,2.81-7.5,8.4,8.4,0,0,1,12.62,0,10.33,10.33,0,0,1,2.79,7.51,10.42,10.42,0,0,1-2.81,7.57A8,8,0,0,1,328.1,40.52Z"/><path  d="M105,9.87a27.53,27.53,0,0,0-9.14-6.25A27.94,27.94,0,0,0,85,1.48,27.56,27.56,0,0,0,74.26,3.63a28.2,28.2,0,0,0-9.09,6.24A29.57,29.57,0,0,0,59,19.2a28.53,28.53,0,0,0-2.15,11A28.74,28.74,0,0,0,65.2,50.63a28.08,28.08,0,0,0,9.06,6.21A27.38,27.38,0,0,0,85,59a27.94,27.94,0,0,0,10.81-2.14,27.18,27.18,0,0,0,9.11-6.22,28.28,28.28,0,0,0,6.15-9.38,29.63,29.63,0,0,0,2.11-11.08,29.27,29.27,0,0,0-2.11-11A28.15,28.15,0,0,0,105,9.87ZM85,40.52a8,8,0,0,1-6.29-2.87,10.42,10.42,0,0,1-2.81-7.57,10.27,10.27,0,0,1,2.8-7.5,8.4,8.4,0,0,1,12.62,0,10.32,10.32,0,0,1,2.79,7.51,10.42,10.42,0,0,1-2.81,7.57A8,8,0,0,1,85,40.52Z"/><path  d="M410,9.87a27.43,27.43,0,0,0-9.14-6.25,27.93,27.93,0,0,0-10.8-2.14,27.49,27.49,0,0,0-10.76,2.15,28.2,28.2,0,0,0-9.09,6.24A29.6,29.6,0,0,0,364,19.2a29,29,0,0,0,6.2,31.43,28.23,28.23,0,0,0,9.07,6.21A27.31,27.31,0,0,0,390.07,59a27.89,27.89,0,0,0,10.8-2.14A27.31,27.31,0,0,0,410,50.63a28.2,28.2,0,0,0,6.14-9.38,29.44,29.44,0,0,0,2.12-11.08,29.08,29.08,0,0,0-2.12-11A28.15,28.15,0,0,0,410,9.87ZM390.07,40.52a8,8,0,0,1-6.29-2.87A10.38,10.38,0,0,1,381,30.08a10.32,10.32,0,0,1,2.8-7.5,8.07,8.07,0,0,1,6.31-2.86,8,8,0,0,1,6.31,2.85,10.32,10.32,0,0,1,2.79,7.51,10.37,10.37,0,0,1-2.81,7.57A8,8,0,0,1,390.07,40.52Z"/><path  d="M493.93,7.86C489.6,3.07,483.83.64,476.78.64A22.7,22.7,0,0,0,466.56,3a22.22,22.22,0,0,0-3.88,2.49A22.11,22.11,0,0,0,458.82,3,22.72,22.72,0,0,0,448.56.64c-7.11,0-12.9,2.42-17.22,7.19-4.19,4.62-6.31,10.81-6.31,18.4v33.2h18.89V24.68a5.65,5.65,0,0,1,1.31-4.14,4.16,4.16,0,0,1,3.33-1.25,4.33,4.33,0,0,1,3.4,1.29,5.57,5.57,0,0,1,1.34,4.1V59.43h18.83V24.68a5.62,5.62,0,0,1,1.33-4.13,5,5,0,0,1,6.64,0,5.66,5.66,0,0,1,1.32,4.13V59.43h18.84V26.23C500.26,18.67,498.13,12.49,493.93,7.86Z"/><path  d="M287.87,1.6c-5.19,0-12.64,1-18.64,6.08s-9.07,12.78-9.07,23v30h18.93V31.3c0-.06-.09-5.72,3.28-8.78,2.05-1.87,5.25-2.54,9.42-2l4.6.61V2.58L293,2A32,32,0,0,0,287.87,1.6Z"/></g></g></svg>