<svg xmlns="http://www.w3.org/2000/svg" viewBox="0 0 240.1 139.7"><title>자산 6</title><g id="레이어_2" data-name="레이어 2"><g id="Layer_1" data-name="Layer 1"><path d="M25.57,0C17.9,0,11.21,2.7,6.74,7.6S0,19.06,0,27.09v31.7H18.88V25.59a7.09,7.09,0,0,1,1.77-5.21,6.91,6.91,0,0,1,4.92-1.73,6.86,6.86,0,0,1,4.9,1.7,7.18,7.18,0,0,1,1.75,5.24v33.2H51.05V27.09c0-8-2.24-14.57-6.67-19.47S33.26,0,25.57,0Z"/><path d="M152,34.68a7.17,7.17,0,0,1-1.74,5.23A5.33,5.33,0,0,1,146,41.62a5.43,5.43,0,0,1-4.29-1.73,7.07,7.07,0,0,1-1.77-5.21V2.76H121V33.18c0,8,2.25,14.57,6.68,19.47,4.57,5.06,10.68,7.62,18.16,7.62s13.64-2.56,18.23-7.61c4.45-4.9,6.71-11.46,6.71-19.48V2.76H152Z"/><path d="M215.56,1.6a12.72,12.72,0,0,0-12.77,12.76,12.5,12.5,0,0,0,3.75,9,12.72,12.72,0,0,0,18,0,12.51,12.51,0,0,0,3.74-9A12.7,12.7,0,0,0,215.56,1.6Z"/><path d="M215.56,35.18a12.75,12.75,0,0,0-9,21.78A12.77,12.77,0,0,0,224.6,38.9,12.49,12.49,0,0,0,215.56,35.18Z"/><path d="M105,9.87a27.53,27.53,0,0,0-9.14-6.25A27.93,27.93,0,0,0,85,1.48,27.57,27.57,0,0,0,74.26,3.63a28.3,28.3,0,0,0-9.09,6.24A29.57,29.57,0,0,0,59,19.2a28.53,28.53,0,0,0-2.15,11A29.24,29.24,0,0,0,59,41.26a28.82,28.82,0,0,0,6.21,9.37,28.08,28.08,0,0,0,9.06,6.21A27.39,27.39,0,0,0,85,59a27.93,27.93,0,0,0,10.8-2.14,27.18,27.18,0,0,0,9.11-6.22,28.12,28.12,0,0,0,6.15-9.38,29.63,29.63,0,0,0,2.11-11.08,29.27,29.27,0,0,0-2.11-11A28.15,28.15,0,0,0,105,9.87ZM85,40.52a8,8,0,0,1-6.3-2.87,10.42,10.42,0,0,1-2.81-7.57,10.27,10.27,0,0,1,2.8-7.5,8.4,8.4,0,0,1,12.62,0,10.32,10.32,0,0,1,2.79,7.51,10.37,10.37,0,0,1-2.81,7.57A8,8,0,0,1,85,40.52Z"/><path d="M87.88,88.87a27.19,27.19,0,0,0-9.14-6.25,27.86,27.86,0,0,0-10.8-2.14,27.31,27.31,0,0,0-10.76,2.15,28.32,28.32,0,0,0-9.09,6.23,29.57,29.57,0,0,0-6.17,9.33,28.57,28.57,0,0,0-2.16,11,29.21,29.21,0,0,0,2.15,11.09,28.7,28.7,0,0,0,6.21,9.38,28.08,28.08,0,0,0,9.06,6.21A27.52,27.52,0,0,0,67.94,138a27.94,27.94,0,0,0,10.81-2.14,27.42,27.42,0,0,0,9.11-6.22A28.38,28.38,0,0,0,94,120.25a29.64,29.64,0,0,0,2.11-11.09,29.21,29.21,0,0,0-2.11-11A28.34,28.34,0,0,0,87.88,88.87ZM67.94,119.52a8,8,0,0,1-6.29-2.87,10.41,10.41,0,0,1-2.82-7.58,10.26,10.26,0,0,1,2.81-7.49,8.41,8.41,0,0,1,12.62,0,10.33,10.33,0,0,1,2.79,7.51,10.44,10.44,0,0,1-2.81,7.58A8,8,0,0,1,67.94,119.52Z"/><path d="M149.85,88.87a27.29,27.29,0,0,0-9.14-6.25,27.89,27.89,0,0,0-10.8-2.14,27.31,27.31,0,0,0-10.76,2.15,28.16,28.16,0,0,0-9.09,6.23,29.6,29.6,0,0,0-6.18,9.33,28.75,28.75,0,0,0-2.15,11,29.3,29.3,0,0,0,2.15,11.1,28.74,28.74,0,0,0,6.2,9.37,28.23,28.23,0,0,0,9.07,6.21A27.49,27.49,0,0,0,129.91,138a27.86,27.86,0,0,0,10.8-2.14,27.46,27.46,0,0,0,9.12-6.22,28.38,28.38,0,0,0,6.15-9.38,29.64,29.64,0,0,0,2.11-11.09,29,29,0,0,0-2.12-11A28.15,28.15,0,0,0,149.85,88.87Zm-19.94,30.65a8,8,0,0,1-6.29-2.87,10.41,10.41,0,0,1-2.82-7.58,10.26,10.26,0,0,1,2.81-7.49,8.41,8.41,0,0,1,12.62,0,10.33,10.33,0,0,1,2.79,7.51,10.44,10.44,0,0,1-2.81,7.58A8,8,0,0,1,129.91,119.52Z"/><path d="M233.77,86.85c-4.33-4.79-10.1-7.21-17.15-7.21A22.57,22.57,0,0,0,206.4,82a22.16,22.16,0,0,0-3.88,2.48,22.29,22.29,0,0,0-14.12-4.82c-7.11,0-12.9,2.42-17.22,7.19s-6.31,10.81-6.31,18.4v33.19h18.89V103.68a5.69,5.69,0,0,1,1.31-4.15,4.19,4.19,0,0,1,3.33-1.25,4.31,4.31,0,0,1,3.4,1.3,5.52,5.52,0,0,1,1.34,4.1v34.74H212V103.68a5.62,5.62,0,0,1,1.33-4.13,5,5,0,0,1,6.64,0,5.6,5.6,0,0,1,1.32,4.13v34.74H240.1V105.23C240.1,97.67,238,91.49,233.77,86.85Z"/><path d="M27.71,80.59c-5.19,0-12.64,1.06-18.64,6.09S0,99.46,0,109.67v30H18.93V110.3c0-.06-.09-5.72,3.28-8.78,2.05-1.87,5.25-2.54,9.42-2l4.6.61V81.57L32.88,81A31.36,31.36,0,0,0,27.71,80.59Z"/></g></g></svg>