<svg xmlns="http://www.w3.org/2000/svg" viewBox="0 0 69.52 90.97" id="share"><g id="레이어_2" data-name="레이어 2"><g id="Layer_1" data-name="Layer 1"><path d="M55.21,28.62A14.31,14.31,0,0,0,66.51,5.53,14.31,14.31,0,0,0,42.23,20.35L23.4,34.48a14.31,14.31,0,1,0-.31,22.36c.27-.21.52-.43.77-.65l18,14.44A14.34,14.34,0,0,0,46.05,88a14.32,14.32,0,1,0-.3-22.39L27.55,51a14.35,14.35,0,0,0-.25-11.45L46.14,25.39A14.23,14.23,0,0,0,55.21,28.62ZM50.34,8.05A7.94,7.94,0,0,1,63.08,15.3a7.92,7.92,0,0,1-3,5.28,7.95,7.95,0,0,1-11.13-1.4A8,8,0,0,1,50.34,8.05ZM48.55,71.79A7.94,7.94,0,1,1,50,82.92,7.89,7.89,0,0,1,48.55,71.79Zm-29.37-20a7.95,7.95,0,1,1,3-5.28A7.84,7.84,0,0,1,19.18,51.8Z"/></g></g></svg>